<?xml version="1.0" encoding="utf-8"?>
<!-- Generator: Adobe Illustrator 24.1.0, SVG Export Plug-In . SVG Version: 6.00 Build 0)  -->
<svg version="1.1" id="Layer_1" xmlns="http://www.w3.org/2000/svg" xmlns:xlink="http://www.w3.org/1999/xlink" x="0px" y="0px"
	 viewBox="0 0 3230 2704" style="enable-background:new 0 0 3230 2704;" xml:space="preserve">
<style type="text/css">
	.st0{fill:#FFFFFF;stroke:#333333;stroke-miterlimit:10;}
</style>
<g>
	<path class="st0" d="M3230.3,521.7C3230.3,521.7,3230.3,521.7,3230.3,521.7c-0.5-65.9-54-119.2-120-119.3l-2318.2-2.7L717.3,94.3
		c-5.5-22.6-17.1-42.1-32.6-57.2c-21.7-22-51.8-35.7-85.2-35.8L120.2,0c-0.1,0-0.2,0-0.4,0C53.7,0-0.1,53.6-0.3,119.8
		c-0.2,66.4,53.5,120.3,119.8,120.5l386.4,1.1l441.9,1802.1c1.9,7.6,4.5,14.9,7.6,21.8c14.5,49.9,60.6,86.4,115.2,86.5l1713.1,2.8
		c0.1,0,0.1,0,0.2,0c66.3,0,120.1-53.7,120.2-120c0.1-66.4-53.6-120.3-120-120.4l-1621.2-2.6l-35.6-145.4l1744.6-216
		c4.5-0.5,8.9-1.2,13.3-2.2c0.3-0.1,0.6-0.1,0.8-0.2c1.5-0.4,3-0.7,4.5-1.1c0.5-0.1,0.9-0.2,1.4-0.4c1.3-0.4,2.6-0.8,3.9-1.2
		c1.6-0.5,3.1-1,4.6-1.6c0.4-0.2,0.8-0.3,1.2-0.5c1.3-0.5,2.5-1,3.8-1.5c0.3-0.1,0.6-0.2,0.8-0.4c1.3-0.6,2.7-1.2,4-1.8
		c0.1,0,0.2-0.1,0.3-0.1c5.6-2.7,10.9-5.7,15.9-9.1c0.3-0.2,0.5-0.4,0.8-0.5c1-0.7,2-1.4,2.9-2.1c0.5-0.4,1.1-0.8,1.6-1.2
		c0.8-0.6,1.6-1.2,2.3-1.8c0.8-0.7,1.6-1.3,2.5-2c0.5-0.4,1-0.8,1.4-1.2c11.3-9.9,20.8-21.9,27.8-35.7c0.2-0.3,0.3-0.6,0.5-0.9
		c0.6-1.2,1.2-2.4,1.8-3.7c0.3-0.7,0.6-1.4,0.9-2.1c0.4-0.8,0.7-1.7,1-2.5c0.4-1,0.8-2,1.2-3c0.2-0.5,0.4-1,0.5-1.4
		c1.2-3.2,2.2-6.4,3.1-9.7l251.3-904.6c3.2-11.4,4.6-22.9,4.4-34.2c0-0.2,0-0.4,0-0.6C3230.3,522.4,3230.3,522.1,3230.3,521.7z
		 M2883.3,892.9l-378.1,24.4V642.1l447.6,0.5L2883.3,892.9z M1859.1,1081.2v352.3l-402.2,49.8v-376.2L1859.1,1081.2z M1456.9,984.9
		V640.8l402.2,0.5v317.7L1456.9,984.9z M1981.1,1073.4l402.2-25.9v321.2l-402.2,49.8V1073.4z M1981.1,951.1V641.4l402.2,0.5v283.2
		L1981.1,951.1z M1334.9,640.7v352.1L943.7,1018l-92.7-377.9L1334.9,640.7z M1069.6,1531.3l-96.3-392.9l361.6-23.3v383.4
		L1069.6,1531.3z M2505.3,1353.5v-314l343.5-22.2l-84.5,304.1L2505.3,1353.5z"/>
	
		<ellipse transform="matrix(0.7071 -0.7071 0.7071 0.7071 -1007.2794 2509.1614)" class="st0" cx="2525.2" cy="2470.5" rx="233.5" ry="233.5"/>
	
		<ellipse transform="matrix(0.7071 -0.7071 0.7071 0.7071 -1357.5117 1663.6257)" class="st0" cx="1329.4" cy="2470.5" rx="233.5" ry="233.5"/>
</g>
</svg>
